# This file uses centimeters as units for non-parametric coordinates.

mtllib Island7.mtl
g default
v 7.089808 -1.515438 -5.812717
v 9.944279 -2.608093 -6.219493
v 5.991456 3.105249 -5.568926
v 13.262288 2.951823 -5.491076
v 7.041844 2.967440 -10.380164
v 13.409517 2.951380 -11.428944
v 5.669100 -1.512522 -10.827502
v 11.381532 -3.690910 -10.326353
v 8.544187 -0.048219 -5.266145
v 8.444987 -2.048202 -5.919174
v 11.373620 -0.184656 -5.629493
v 9.657316 2.949589 -5.389158
v 6.215297 -0.060752 -5.372522
v 12.006012 2.948566 -8.726340
v 15.872733 2.943957 -8.875090
v 9.734912 3.033530 -11.316558
v 5.554428 2.604178 -7.801340
v 9.176752 1.689562 -11.167520
v 11.997092 -0.154484 -11.002613
v 8.510955 -3.044781 -10.632041
v 5.499540 1.022441 -11.012467
v 8.592396 -2.450569 -7.883891
v 10.596528 -2.837538 -8.147942
v 6.888957 -1.195315 -7.592845
v 13.091284 -0.101774 -8.456762
v 5.970684 0.224443 -7.537211
v 7.460542 -1.083031 -5.341125
v 6.728587 -0.968872 -5.499460
v 7.666934 -1.750656 -5.813232
v 8.395318 -1.235727 -5.438523
v 7.188668 -0.041426 -5.190542
v 7.937672 2.939134 -6.810683
v 5.391519 2.624311 -6.460100
v 7.460147 2.997095 -5.366029
v 11.277515 2.948861 -7.128561
v 8.313509 2.936791 -8.348287
v 7.623917 2.226496 -10.964840
v 5.965886 1.799929 -10.918382
v 7.902737 3.028842 -10.885598
v 9.495148 2.254978 -11.302949
v 7.230823 1.793634 -10.979973
v 7.371130 -1.598161 -9.090436
v 6.447154 -0.812839 -9.033711
v 6.963440 -1.676831 -10.799927
v 8.594342 -2.986422 -9.124870
v 7.641719 -1.699934 -7.751784
v 10.906301 -1.697398 -7.059837
v 10.244687 -1.704987 -5.946253
v 10.252819 -2.657842 -7.088408
v 11.372912 -1.908748 -8.197180
v 12.401977 -0.145374 -7.094004
v 6.014131 0.035939 -9.017920
v 5.542528 0.007565 -10.849051
v 6.381782 -0.558204 -7.516462
v 5.723201 0.722897 -9.128759
v 9.333711 -1.481851 -5.621497
v 9.256707 -2.419151 -6.066954
v 9.981295 -0.125899 -5.470937
v 11.342139 1.448818 -5.468432
v 12.753410 1.444589 -5.466671
v 11.927175 2.951391 -5.514528
v 9.239991 1.438268 -5.331920
v 7.496902 1.517198 -5.656546
v 6.076905 1.374279 -5.824518
v 13.789067 3.090966 -7.271195
v 15.002966 3.194064 -7.209291
v 14.526739 2.945548 -8.896400
v 14.006480 2.954026 -10.290643
v 15.319906 2.945623 -10.263080
v 12.078223 2.969658 -11.454202
v 11.351794 3.003219 -10.101065
v 7.982246 3.000868 -9.788984
v 5.835394 2.945774 -9.566017
v 11.725681 1.824088 -11.380908
v 12.931883 1.464407 -11.324074
v 11.120908 0.848281 -11.121206
v 10.019065 -1.489286 -10.664870
v 11.564676 -2.330327 -10.663276
v 10.077094 -3.992402 -10.503753
v 8.525713 -0.379202 -10.810782
v 6.861049 0.323116 -10.945777
v 9.916004 -3.686044 -9.210978
v 10.882499 -3.205789 -9.269574
v 9.676885 -3.185115 -8.033912
v 9.403772 -2.772584 -6.974845
v 8.522992 -2.345674 -6.778905
v 7.721357 -1.912935 -6.628922
v 7.038188 -1.523419 -6.451563
v 11.533358 -2.244471 -9.303665
v 12.786875 -0.131253 -9.709024
v 14.659090 1.467333 -10.140025
v 15.272168 1.465184 -8.778992
v 14.435485 1.558632 -7.177439
v 6.551559 -0.874138 -6.295709
v 6.032253 0.005222 -6.244476
v 5.745916 1.269715 -6.529160
v 5.934938 1.430389 -7.828990
v 5.579742 1.584756 -9.474403
vt 0.375000 0.000000
vt 0.625000 0.000000
vt 0.375000 0.250000
vt 0.625000 0.250000
vt 0.375000 0.500000
vt 0.625000 0.500000
vt 0.375000 0.750000
vt 0.625000 0.750000
vt 0.375000 1.000000
vt 0.625000 1.000000
vt 0.875000 0.000000
vt 0.875000 0.250000
vt 0.125000 0.000000
vt 0.125000 0.250000
vt 0.500000 0.125000
vt 0.500000 0.000000
vt 0.500000 1.000000
vt 0.625000 0.125000
vt 0.500000 0.250000
vt 0.375000 0.125000
vt 0.500000 0.375000
vt 0.625000 0.375000
vt 0.750000 0.250000
vt 0.500000 0.500000
vt 0.250000 0.250000
vt 0.375000 0.375000
vt 0.500000 0.625000
vt 0.625000 0.625000
vt 0.875000 0.125000
vt 0.500000 0.750000
vt 0.125000 0.125000
vt 0.375000 0.625000
vt 0.500000 0.875000
vt 0.625000 0.875000
vt 0.750000 0.000000
vt 0.500000 1.000000
vt 0.250000 0.000000
vt 0.375000 0.875000
vt 0.750000 0.125000
vt 0.750000 0.000000
vt 0.875000 0.125000
vt 0.750000 0.250000
vt 0.250000 0.125000
vt 0.250000 0.000000
vt 0.250000 0.250000
vt 0.125000 0.125000
vt 0.437500 0.062500
vt 0.375000 0.062500
vt 0.437500 0.000000
vt 0.437500 1.000000
vt 0.500000 0.062500
vt 0.437500 0.125000
vt 0.437500 0.312500
vt 0.312500 0.250000
vt 0.375000 0.312500
vt 0.437500 0.250000
vt 0.500000 0.312500
vt 0.437500 0.375000
vt 0.437500 0.562500
vt 0.125000 0.187500
vt 0.375000 0.562500
vt 0.437500 0.500000
vt 0.500000 0.562500
vt 0.437500 0.625000
vt 0.437500 0.812500
vt 0.187500 0.000000
vt 0.375000 0.812500
vt 0.437500 0.750000
vt 0.500000 0.812500
vt 0.437500 0.875000
vt 0.687500 0.062500
vt 0.625000 0.062500
vt 0.625000 0.937500
vt 0.687500 0.000000
vt 0.750000 0.062500
vt 0.687500 0.125000
vt 0.187500 0.062500
vt 0.125000 0.062500
vt 0.375000 0.687500
vt 0.187500 0.000000
vt 0.250000 0.062500
vt 0.187500 0.125000
vt 0.562500 0.062500
vt 0.562500 0.000000
vt 0.562500 1.000000
vt 0.562500 0.125000
vt 0.562500 0.187500
vt 0.625000 0.187500
vt 0.562500 0.250000
vt 0.500000 0.187500
vt 0.437500 0.187500
vt 0.375000 0.187500
vt 0.562500 0.312500
vt 0.625000 0.312500
vt 0.687500 0.250000
vt 0.562500 0.375000
vt 0.562500 0.437500
vt 0.625000 0.437500
vt 0.812500 0.250000
vt 0.562500 0.500000
vt 0.500000 0.437500
vt 0.437500 0.437500
vt 0.187500 0.250000
vt 0.375000 0.437500
vt 0.562500 0.562500
vt 0.625000 0.562500
vt 0.875000 0.187500
vt 0.562500 0.625000
vt 0.562500 0.687500
vt 0.625000 0.687500
vt 0.875000 0.062500
vt 0.562500 0.750000
vt 0.500000 0.687500
vt 0.437500 0.687500
vt 0.375000 0.687500
vt 0.562500 0.812500
vt 0.625000 0.812500
vt 0.812500 0.000000
vt 0.562500 0.875000
vt 0.562500 0.937500
vt 0.625000 0.937500
vt 0.562500 1.000000
vt 0.500000 0.937500
vt 0.437500 0.937500
vt 0.437500 1.000000
vt 0.312500 0.000000
vt 0.375000 0.937500
vt 0.812500 0.062500
vt 0.812500 0.000000
vt 0.875000 0.062500
vt 0.812500 0.125000
vt 0.812500 0.187500
vt 0.875000 0.187500
vt 0.812500 0.250000
vt 0.750000 0.187500
vt 0.687500 0.187500
vt 0.687500 0.250000
vt 0.312500 0.062500
vt 0.312500 0.000000
vt 0.312500 0.125000
vt 0.312500 0.187500
vt 0.312500 0.250000
vt 0.250000 0.187500
vt 0.187500 0.187500
vt 0.187500 0.250000
vt 0.125000 0.187500
vn -0.202635 -0.217506 0.954793
vn -0.202635 -0.217506 0.954793
vn -0.202635 -0.217506 0.954793
vn -0.202635 -0.217506 0.954793
vn -0.126308 0.991495 -0.031378
vn -0.126308 0.991495 -0.031378
vn -0.126308 0.991495 -0.031378
vn -0.126308 0.991495 -0.031378
vn -0.047650 0.123281 -0.991227
vn -0.047650 0.123281 -0.991227
vn -0.047650 0.123281 -0.991227
vn -0.047650 0.123281 -0.991227
vn -0.608232 -0.793563 0.017636
vn -0.608232 -0.793563 0.017636
vn -0.608232 -0.793563 0.017636
vn -0.608232 -0.793563 0.017636
vn 0.667879 -0.609796 0.426716
vn 0.667879 -0.609796 0.426716
vn 0.667879 -0.609796 0.426716
vn 0.667879 -0.609796 0.426716
vn -0.971827 -0.163292 0.169966
vn -0.971827 -0.163292 0.169966
vn -0.971827 -0.163292 0.169966
vn -0.971827 -0.163292 0.169966
vn 0.002087 -0.467816 0.883823
vn 0.002087 -0.467816 0.883823
vn 0.002087 -0.467816 0.883823
vn 0.002087 -0.467816 0.883823
vn 0.053404 -0.096965 0.993854
vn 0.053404 -0.096965 0.993854
vn 0.053404 -0.096965 0.993854
vn 0.053404 -0.096965 0.993854
vn -0.078276 -0.067610 0.994636
vn -0.078276 -0.067610 0.994636
vn -0.078276 -0.067610 0.994636
vn -0.078276 -0.067610 0.994636
vn -0.029505 0.999511 0.010309
vn -0.029505 0.999511 0.010309
vn -0.029505 0.999511 0.010309
vn -0.029505 0.999511 0.010309
vn 0.003718 0.999991 0.002212
vn 0.003718 0.999991 0.002212
vn 0.003718 0.999991 0.002212
vn 0.003718 0.999991 0.002212
vn 0.002034 0.999717 0.023710
vn 0.002034 0.999717 0.023710
vn 0.002034 0.999717 0.023710
vn 0.002034 0.999717 0.023710
vn -0.050262 -0.029616 -0.998297
vn -0.050262 -0.029616 -0.998297
vn -0.050262 -0.029616 -0.998297
vn -0.050262 -0.029616 -0.998297
vn -0.066275 -0.151339 -0.986258
vn -0.066275 -0.151339 -0.986258
vn -0.066275 -0.151339 -0.986258
vn -0.066275 -0.151339 -0.986258
vn 0.049878 -0.068386 -0.996411
vn 0.049878 -0.068386 -0.996411
vn 0.049878 -0.068386 -0.996411
vn 0.049878 -0.068386 -0.996411
vn -0.494139 -0.863751 0.098797
vn -0.494139 -0.863751 0.098797
vn -0.494139 -0.863751 0.098797
vn -0.494139 -0.863751 0.098797
vn 0.278336 -0.900953 0.332885
vn 0.278336 -0.900953 0.332885
vn 0.278336 -0.900953 0.332885
vn 0.278336 -0.900953 0.332885
vn -0.380527 -0.899040 0.216627
vn -0.380527 -0.899040 0.216627
vn -0.380527 -0.899040 0.216627
vn -0.380527 -0.899040 0.216627
vn 0.760475 -0.559729 0.329213
vn 0.760475 -0.559729 0.329213
vn 0.760475 -0.559729 0.329213
vn 0.760475 -0.559729 0.329213
vn 0.556032 -0.615678 -0.558363
vn 0.556031 -0.615678 -0.558363
vn 0.556031 -0.615678 -0.558363
vn 0.556031 -0.615678 -0.558363
vn 0.834267 -0.293738 0.466601
vn 0.834267 -0.293738 0.466601
vn 0.834267 -0.293738 0.466601
vn 0.834267 -0.293738 0.466601
vn -0.795029 -0.603861 -0.057276
vn -0.795029 -0.603861 -0.057276
vn -0.795029 -0.603861 -0.057276
vn -0.795029 -0.603861 -0.057276
vn -0.948304 -0.064397 0.310761
vn -0.948304 -0.064397 0.310761
vn -0.948304 -0.064397 0.310761
vn -0.948304 -0.064397 0.310761
vn -0.998700 -0.048824 0.014639
vn -0.998700 -0.048824 0.014639
vn -0.998700 -0.048824 0.014639
vn -0.998700 -0.048824 0.014639
vn -0.252666 -0.605997 0.754273
vn -0.252666 -0.605997 0.754273
vn -0.252666 -0.605996 0.754273
vn -0.252666 -0.605997 0.754273
vn -0.044251 -0.546137 0.836526
vn -0.044251 -0.546137 0.836526
vn -0.044251 -0.546137 0.836526
vn -0.044251 -0.546137 0.836526
vn 0.064917 -0.139574 0.988081
vn 0.064917 -0.139574 0.988081
vn 0.064917 -0.139574 0.988081
vn 0.064917 -0.139574 0.988081
vn -0.058256 0.973413 -0.221524
vn -0.058256 0.973413 -0.221524
vn -0.058256 0.973413 -0.221524
vn -0.058256 0.973413 -0.221524
vn 0.005928 0.999877 -0.014525
vn 0.005928 0.999877 -0.014525
vn 0.005928 0.999877 -0.014525
vn 0.005928 0.999877 -0.014525
vn -0.003254 0.999993 -0.001987
vn -0.003254 0.999993 -0.001987
vn -0.003254 0.999993 -0.001987
vn -0.003254 0.999993 -0.001987
vn -0.273729 0.454034 -0.847895
vn -0.273729 0.454034 -0.847895
vn -0.273729 0.454034 -0.847895
vn -0.273729 0.454034 -0.847895
vn -0.203078 0.107024 -0.973296
vn -0.203078 0.107024 -0.973296
vn -0.203078 0.107024 -0.973296
vn -0.203078 0.107024 -0.973296
vn -0.136813 -0.021831 -0.990356
vn -0.136813 -0.021831 -0.990356
vn -0.136813 -0.021831 -0.990356
vn -0.136813 -0.021831 -0.990356
vn -0.369442 -0.872798 0.318960
vn -0.369442 -0.872798 0.318960
vn -0.369442 -0.872798 0.318960
vn -0.369442 -0.872798 0.318960
vn -0.701911 -0.698978 0.136934
vn -0.701911 -0.698978 0.136934
vn -0.701911 -0.698978 0.136934
vn -0.701911 -0.698978 0.136934
vn -0.681151 -0.707082 0.189918
vn -0.681151 -0.707082 0.189918
vn -0.681151 -0.707082 0.189918
vn -0.681151 -0.707082 0.189918
vn 0.789627 -0.468378 0.396372
vn 0.789627 -0.468378 0.396372
vn 0.789627 -0.468378 0.396372
vn 0.789627 -0.468378 0.396372
vn 0.741835 -0.557378 0.372840
vn 0.741835 -0.557378 0.372840
vn 0.741835 -0.557378 0.372840
vn 0.741835 -0.557378 0.372840
vn 0.689397 -0.628088 0.360884
vn 0.689397 -0.628088 0.360885
vn 0.689397 -0.628088 0.360884
vn 0.689397 -0.628088 0.360885
vn -0.909461 -0.213975 0.356504
vn -0.909461 -0.213975 0.356504
vn -0.909461 -0.213975 0.356504
vn -0.909461 -0.213975 0.356504
vn -0.842313 -0.536306 0.053715
vn -0.842313 -0.536306 0.053715
vn -0.842313 -0.536306 0.053715
vn -0.842313 -0.536306 0.053715
vn -0.902951 -0.428823 0.028098
vn -0.902951 -0.428823 0.028098
vn -0.902951 -0.428823 0.028098
vn -0.902951 -0.428823 0.028098
vn 0.170226 -0.388542 0.905571
vn 0.170226 -0.388542 0.905571
vn 0.170226 -0.388542 0.905571
vn 0.170226 -0.388542 0.905571
vn 0.168006 -0.258334 0.951335
vn 0.168006 -0.258334 0.951335
vn 0.168006 -0.258334 0.951335
vn 0.168006 -0.258334 0.951335
vn 0.136663 -0.166776 0.976478
vn 0.136663 -0.166776 0.976478
vn 0.136663 -0.166776 0.976478
vn 0.136663 -0.166776 0.976478
vn -0.009140 0.026736 0.999601
vn -0.009140 0.026736 0.999601
vn -0.009140 0.026736 0.999601
vn -0.009140 0.026736 0.999601
vn 0.059746 0.014351 0.998110
vn 0.059746 0.014351 0.998110
vn 0.059746 0.014351 0.998111
vn 0.059746 0.014351 0.998111
vn 0.095084 -0.043327 0.994526
vn 0.095084 -0.043327 0.994526
vn 0.095084 -0.043327 0.994526
vn 0.095084 -0.043327 0.994526
vn -0.123442 -0.170955 0.977515
vn -0.123442 -0.170955 0.977515
vn -0.123442 -0.170955 0.977515
vn -0.123442 -0.170955 0.977515
vn -0.157847 0.297673 0.941528
vn -0.157847 0.297673 0.941528
vn -0.157847 0.297673 0.941528
vn -0.157847 0.297673 0.941528
vn -0.073211 0.194945 0.978078
vn -0.073211 0.194945 0.978078
vn -0.073211 0.194945 0.978078
vn -0.073211 0.194945 0.978078
vn -0.042678 0.996953 0.065297
vn -0.042678 0.996953 0.065297
vn -0.042678 0.996953 0.065297
vn -0.042678 0.996953 0.065297
vn -0.034839 0.990095 -0.136009
vn -0.034839 0.990095 -0.136009
vn -0.034839 0.990095 -0.136009
vn -0.034839 0.990095 -0.136009
vn -0.031263 0.997749 -0.059331
vn -0.031263 0.997749 -0.059331
vn -0.031263 0.997749 -0.059331
vn -0.031263 0.997749 -0.059331
vn 0.010242 0.999918 -0.007696
vn 0.010242 0.999918 -0.007696
vn 0.010242 0.999918 -0.007696
vn 0.010242 0.999918 -0.007696
vn 0.021756 0.999677 -0.013115
vn 0.021756 0.999677 -0.013115
vn 0.021756 0.999677 -0.013115
vn 0.021756 0.999677 -0.013115
vn 0.011336 0.999774 0.017986
vn 0.011336 0.999774 0.017986
vn 0.011336 0.999774 0.017986
vn 0.011336 0.999774 0.017986
vn -0.037819 0.999278 0.003655
vn -0.037819 0.999278 0.003655
vn -0.037819 0.999278 0.003655
vn -0.037819 0.999278 0.003655
vn -0.058447 0.990276 0.126247
vn -0.058447 0.990276 0.126247
vn -0.058447 0.990276 0.126247
vn -0.058447 0.990276 0.126247
vn 0.002049 0.999140 0.041418
vn 0.002049 0.999140 0.041418
vn 0.002049 0.999140 0.041418
vn 0.002049 0.999140 0.041418
vn 0.021209 -0.074164 -0.997020
vn 0.021209 -0.074164 -0.997021
vn 0.021209 -0.074164 -0.997021
vn 0.021209 -0.074164 -0.997020
vn -0.043987 -0.193431 -0.980127
vn -0.043987 -0.193431 -0.980127
vn -0.043987 -0.193431 -0.980127
vn -0.043987 -0.193431 -0.980127
vn -0.070710 -0.207770 -0.975619
vn -0.070710 -0.207770 -0.975619
vn -0.070710 -0.207770 -0.975619
vn -0.070710 -0.207770 -0.975619
vn 0.037820 -0.128958 -0.990929
vn 0.037820 -0.128958 -0.990929
vn 0.037820 -0.128958 -0.990929
vn 0.037820 -0.128958 -0.990929
vn 0.045513 -0.065164 -0.996836
vn 0.045513 -0.065164 -0.996836
vn 0.045513 -0.065164 -0.996836
vn 0.045513 -0.065164 -0.996836
vn -0.039248 -0.166200 -0.985311
vn -0.039248 -0.166200 -0.985311
vn -0.039248 -0.166200 -0.985311
vn -0.039248 -0.166200 -0.985311
vn -0.023589 -0.049020 -0.998519
vn -0.023589 -0.049020 -0.998519
vn -0.023589 -0.049020 -0.998519
vn -0.023589 -0.049020 -0.998519
vn 0.007603 -0.080250 -0.996746
vn 0.007603 -0.080250 -0.996746
vn 0.007603 -0.080250 -0.996746
vn 0.007603 -0.080250 -0.996746
vn -0.036644 -0.099267 -0.994386
vn -0.036644 -0.099267 -0.994386
vn -0.036644 -0.099267 -0.994386
vn -0.036644 -0.099267 -0.994386
vn 0.283824 -0.881752 0.376772
vn 0.283824 -0.881752 0.376772
vn 0.283824 -0.881752 0.376772
vn 0.283824 -0.881752 0.376772
vn 0.398530 -0.824054 0.402627
vn 0.398530 -0.824054 0.402627
vn 0.398530 -0.824054 0.402627
vn 0.398530 -0.824054 0.402627
vn -0.464253 -0.829855 0.309533
vn -0.464253 -0.829855 0.309533
vn -0.464252 -0.829855 0.309533
vn -0.464253 -0.829855 0.309533
vn -0.009181 -0.975673 0.219040
vn -0.009181 -0.975673 0.219040
vn -0.009181 -0.975673 0.219039
vn -0.009181 -0.975673 0.219040
vn -0.361879 -0.888799 0.281212
vn -0.361879 -0.888799 0.281212
vn -0.361879 -0.888799 0.281212
vn -0.361879 -0.888799 0.281212
vn -0.487544 -0.863472 0.129290
vn -0.487545 -0.863472 0.129290
vn -0.487545 -0.863472 0.129290
vn -0.487545 -0.863472 0.129290
vn -0.429878 -0.896860 0.104153
vn -0.429878 -0.896860 0.104153
vn -0.429878 -0.896860 0.104153
vn -0.429878 -0.896860 0.104153
vn -0.546971 -0.825040 -0.141885
vn -0.546971 -0.825040 -0.141885
vn -0.546971 -0.825040 -0.141885
vn -0.546971 -0.825040 -0.141885
vn -0.563398 -0.825336 -0.037461
vn -0.563397 -0.825336 -0.037461
vn -0.563398 -0.825336 -0.037461
vn -0.563397 -0.825336 -0.037461
vn 0.919188 -0.287087 0.269581
vn 0.919188 -0.287087 0.269581
vn 0.919188 -0.287087 0.269581
vn 0.919188 -0.287087 0.269581
vn 0.889130 -0.390838 -0.238104
vn 0.889130 -0.390838 -0.238104
vn 0.889130 -0.390838 -0.238104
vn 0.889130 -0.390838 -0.238104
vn 0.799694 -0.598800 0.043903
vn 0.799694 -0.598800 0.043903
vn 0.799694 -0.598800 0.043903
vn 0.799694 -0.598800 0.043903
vn 0.523348 -0.263223 -0.810445
vn 0.523348 -0.263223 -0.810445
vn 0.523348 -0.263223 -0.810445
vn 0.523348 -0.263223 -0.810445
vn 0.848122 -0.388478 -0.360241
vn 0.848122 -0.388478 -0.360241
vn 0.848122 -0.388478 -0.360241
vn 0.848122 -0.388478 -0.360241
vn 0.580794 -0.790191 -0.195644
vn 0.580795 -0.790191 -0.195644
vn 0.580794 -0.790191 -0.195644
vn 0.580794 -0.790191 -0.195644
vn 0.700857 -0.227944 0.675900
vn 0.700857 -0.227944 0.675900
vn 0.700857 -0.227944 0.675900
vn 0.700857 -0.227944 0.675900
vn 0.604858 -0.630955 0.485843
vn 0.604858 -0.630955 0.485843
vn 0.604858 -0.630955 0.485843
vn 0.604858 -0.630955 0.485843
vn 0.599766 -0.732933 0.321077
vn 0.599766 -0.732933 0.321077
vn 0.599766 -0.732933 0.321077
vn 0.599766 -0.732933 0.321077
vn -0.795332 -0.599382 0.090484
vn -0.795332 -0.599382 0.090484
vn -0.795332 -0.599382 0.090484
vn -0.795332 -0.599382 0.090484
vn -0.852055 -0.505693 0.135195
vn -0.852055 -0.505693 0.135195
vn -0.852055 -0.505693 0.135195
vn -0.852055 -0.505693 0.135195
vn -0.872519 -0.488010 -0.023595
vn -0.872519 -0.488010 -0.023595
vn -0.872519 -0.488010 -0.023595
vn -0.872519 -0.488010 -0.023595
vn -0.821398 -0.174232 0.543091
vn -0.821398 -0.174232 0.543091
vn -0.821398 -0.174232 0.543091
vn -0.821398 -0.174232 0.543091
vn -0.952059 -0.271323 -0.141303
vn -0.952059 -0.271323 -0.141303
vn -0.952059 -0.271323 -0.141303
vn -0.952059 -0.271323 -0.141303
vn -0.986976 -0.144955 -0.069761
vn -0.986976 -0.144955 -0.069761
vn -0.986976 -0.144955 -0.069761
vn -0.986976 -0.144955 -0.069761
vn -0.742045 0.474433 -0.473584
vn -0.742045 0.474433 -0.473584
vn -0.742045 0.474433 -0.473584
vn -0.742045 0.474433 -0.473584
vn -0.981516 0.190488 -0.018461
vn -0.981516 0.190488 -0.018461
vn -0.981516 0.190488 -0.018461
vn -0.981516 0.190488 -0.018461
vn -0.983738 -0.030703 0.176967
vn -0.983738 -0.030703 0.176967
vn -0.983738 -0.030703 0.176967
vn -0.983738 -0.030703 0.176967
s off
g pCube3
usemtl initialShadingGroup
f 31/52/1 13/20/2 28/48/3 27/47/4
f 36/58/5 17/26/6 33/55/7 32/53/8
f 41/64/9 21/32/10 38/61/11 37/59/12
f 46/70/13 24/38/14 43/67/15 42/65/16
f 51/76/17 11/18/18 48/72/19 47/71/20
f 55/82/21 21/46/22 53/78/23 52/77/24
f 30/51/25 10/16/26 57/84/27 56/83/28
f 58/86/29 11/18/30 60/88/31 59/87/32
f 62/90/33 12/19/34 34/56/35 63/91/36
f 35/57/37 12/19/38 61/89/39 65/93/40
f 67/96/41 15/22/42 69/98/43 68/97/44
f 71/101/45 16/24/46 39/62/47 72/102/48
f 40/63/49 16/24/50 70/100/51 74/105/52
f 76/108/53 19/28/54 78/110/55 77/109/56
f 80/113/57 20/30/58 44/68/59 81/114/60
f 45/69/61 20/30/62 79/112/63 82/116/64
f 84/119/65 23/34/66 49/121/67 85/120/68
f 86/123/69 10/36/70 29/125/71 87/124/72
f 50/75/73 23/40/74 83/129/75 89/128/76
f 90/131/77 19/41/78 75/133/79 91/132/80
f 92/135/81 15/42/82 66/137/83 93/136/84
f 54/81/85 24/44/86 88/139/87 94/138/88
f 95/140/89 13/20/90 64/92/91 96/141/92
f 97/143/93 17/45/94 73/145/95 98/144/96
f 28/48/97 1/1/98 29/49/99 27/47/100
f 29/49/101 10/16/102 30/51/103 27/47/104
f 30/51/105 9/15/106 31/52/107 27/47/108
f 33/55/109 3/3/110 34/56/111 32/53/112
f 34/56/113 12/19/114 35/57/115 32/53/116
f 35/57/117 14/21/118 36/58/119 32/53/120
f 38/61/121 5/5/122 39/62/123 37/59/124
f 39/62/125 16/24/126 40/63/127 37/59/128
f 40/63/129 18/27/130 41/64/131 37/59/132
f 43/67/133 7/7/134 44/68/135 42/65/136
f 44/68/137 20/30/138 45/69/139 42/65/140
f 45/69/141 22/33/142 46/70/143 42/65/144
f 48/72/145 2/2/146 49/74/147 47/71/148
f 49/74/149 23/40/150 50/75/151 47/71/152
f 50/75/153 25/39/154 51/76/155 47/71/156
f 53/78/157 7/13/158 43/80/159 52/77/160
f 43/80/161 24/44/162 54/81/163 52/77/164
f 54/81/165 26/43/166 55/82/167 52/77/168
f 57/84/169 2/2/170 48/72/171 56/83/172
f 48/72/173 11/18/174 58/86/175 56/83/176
f 58/86/177 9/15/178 30/51/179 56/83/180
f 60/88/181 4/4/182 61/89/183 59/87/184
f 61/89/185 12/19/186 62/90/187 59/87/188
f 62/90/189 9/15/190 58/86/191 59/87/192
f 34/56/193 3/3/194 64/92/195 63/91/196
f 64/92/197 13/20/198 31/52/199 63/91/200
f 31/52/201 9/15/202 62/90/203 63/91/204
f 61/89/205 4/4/206 66/94/207 65/93/208
f 66/94/209 15/22/210 67/96/211 65/93/212
f 67/96/213 14/21/214 35/57/215 65/93/216
f 69/98/217 6/6/218 70/100/219 68/97/220
f 70/100/221 16/24/222 71/101/223 68/97/224
f 71/101/225 14/21/226 67/96/227 68/97/228
f 39/62/229 5/5/230 73/104/231 72/102/232
f 73/104/233 17/26/234 36/58/235 72/102/236
f 36/58/237 14/21/238 71/101/239 72/102/240
f 70/100/241 6/6/242 75/106/243 74/105/244
f 75/106/245 19/28/246 76/108/247 74/105/248
f 76/108/249 18/27/250 40/63/251 74/105/252
f 78/110/253 8/8/254 79/112/255 77/109/256
f 79/112/257 20/30/258 80/113/259 77/109/260
f 80/113/261 18/27/262 76/108/263 77/109/264
f 44/68/265 7/7/266 53/115/267 81/114/268
f 53/115/269 21/32/270 41/64/271 81/114/272
f 41/64/273 18/27/274 80/113/275 81/114/276
f 79/112/277 8/8/278 83/117/279 82/116/280
f 83/117/281 23/34/282 84/119/283 82/116/284
f 84/119/285 22/33/286 45/69/287 82/116/288
f 49/121/289 2/10/290 57/122/291 85/120/292
f 57/122/293 10/36/294 86/123/295 85/120/296
f 86/123/297 22/33/298 84/119/299 85/120/300
f 29/125/301 1/9/302 88/127/303 87/124/304
f 88/127/305 24/38/306 46/70/307 87/124/308
f 46/70/309 22/33/310 86/123/311 87/124/312
f 83/129/313 8/11/314 78/130/315 89/128/316
f 78/130/317 19/41/318 90/131/319 89/128/320
f 90/131/321 25/39/322 50/75/323 89/128/324
f 75/133/325 6/12/326 69/134/327 91/132/328
f 69/134/329 15/42/330 92/135/331 91/132/332
f 92/135/333 25/39/334 90/131/335 91/132/336
f 66/137/337 4/4/338 60/88/339 93/136/340
f 60/88/341 11/18/342 51/76/343 93/136/344
f 51/76/345 25/39/346 92/135/347 93/136/348
f 88/139/349 1/1/350 28/48/351 94/138/352
f 28/48/353 13/20/354 95/140/355 94/138/356
f 95/140/357 26/43/358 54/81/359 94/138/360
f 64/92/361 3/3/362 33/142/363 96/141/364
f 33/142/365 17/45/366 97/143/367 96/141/368
f 97/143/369 26/43/370 95/140/371 96/141/372
f 73/145/373 5/14/374 38/146/375 98/144/376
f 38/146/377 21/46/378 55/82/379 98/144/380
f 55/82/381 26/43/382 97/143/383 98/144/384
