# This file uses centimeters as units for non-parametric coordinates.

mtllib Island5.mtl
g default
v 3.219290 -4.086326 9.815023
v 10.453079 -7.488356 9.138190
v 2.939197 1.069925 9.429260
v 12.046606 -0.728870 9.826566
v 6.155827 1.857812 4.470386
v 12.100697 1.330980 3.309577
v 6.316961 -2.855312 4.234694
v 12.135213 -5.472370 3.993812
v 5.994332 -4.968809 12.169084
v 6.192087 -7.523141 11.279965
v 10.709537 -4.921937 8.658908
v 7.860739 -2.427141 11.087204
v 2.639167 -1.756240 9.550219
v 8.583948 -2.002506 7.230724
v 11.782760 0.343889 5.209803
v 9.386214 1.275814 3.362199
v 3.684367 1.268563 6.718756
v 9.519763 -2.380472 2.625546
v 12.359520 -2.703340 3.534502
v 9.340239 -6.095627 4.581786
v 5.777966 -0.205747 3.344825
v 7.621969 -8.376470 8.951090
v 11.463864 -7.131816 6.552905
v 4.107888 -4.478097 9.602215
v 12.459364 -3.951326 5.201639
v 3.523910 -1.136180 6.310904
v 3.828203 -4.592375 11.226479
v 2.868764 -3.069237 9.619707
v 4.823379 -5.376013 10.873666
v 6.223946 -5.664955 11.292431
v 3.585499 -3.630273 11.268259
v 4.123382 -1.030006 9.024218
v 2.862754 1.093482 8.042711
v 3.969384 -1.772419 10.445772
v 8.909493 -2.869459 9.931037
v 5.045656 -0.389728 7.153389
v 7.526087 0.092564 3.018627
v 5.803911 0.534522 3.756642
v 7.648281 1.574454 4.036865
v 9.497231 -0.719927 2.593224
v 7.787593 -0.935464 2.525919
v 6.640860 -6.351073 8.420756
v 4.892634 -4.583224 8.528069
v 7.673122 -5.130260 4.851525
v 8.500716 -7.372022 7.092310
v 6.115590 -6.484769 10.079438
v 11.217140 -6.576405 7.451060
v 10.572292 -6.612798 8.934141
v 10.922822 -7.726199 7.845122
v 11.624068 -5.912461 6.253578
v 11.688075 -4.639256 6.577886
v 4.963231 -1.542125 5.390715
v 6.240909 -0.956907 3.152894
v 3.715120 -2.261877 7.447956
v 4.552686 -0.502764 4.795670
v 7.455178 -7.967268 10.991412
v 8.310252 -8.488814 10.095239
v 8.333371 -6.004942 10.832046
v 11.190810 -3.763514 10.180048
v 12.525170 -2.749184 9.147935
v 10.548070 -2.490097 10.559587
v 6.600475 -4.293863 12.219823
v 3.765547 -2.491152 11.363319
v 2.110897 -0.261642 9.386033
v 11.045388 -2.066383 8.987728
v 12.165005 -0.739646 7.874661
v 10.941319 -0.413755 5.691102
v 10.808612 0.621379 3.877455
v 11.997884 0.869007 3.952408
v 10.894986 1.142488 3.106852
v 9.343137 0.700012 4.208801
v 6.783677 1.136648 5.150359
v 5.082241 1.593246 5.506211
v 11.228196 -1.140550 2.764779
v 12.539475 -0.910757 3.088727
v 11.050764 -2.976652 3.262397
v 10.819136 -4.626986 3.893089
v 12.136051 -4.202290 3.904124
v 10.861494 -5.946980 4.154481
v 9.362508 -4.268978 3.555815
v 7.922282 -2.655749 3.192577
v 10.407907 -6.952770 5.757734
v 11.934859 -6.215328 5.207665
v 9.715754 -8.096064 7.337499
v 9.053956 -8.680977 8.626133
v 6.795455 -8.632962 10.278215
v 5.619384 -5.943135 10.782948
v 3.500060 -4.064551 9.615570
v 11.978183 -4.997019 5.023237
v 12.512763 -3.398241 4.350056
v 12.690684 -1.549508 3.792646
v 12.279347 -1.828649 4.614447
v 11.864045 -2.443197 6.532332
v 3.143350 -2.763710 8.503512
v 2.913036 -1.696214 7.886210
v 2.409897 -0.310534 7.802556
v 3.416197 -0.080652 6.251641
v 4.633089 0.279368 4.833595
vt 0.375000 0.000000
vt 0.625000 0.000000
vt 0.375000 0.250000
vt 0.625000 0.250000
vt 0.375000 0.500000
vt 0.625000 0.500000
vt 0.375000 0.750000
vt 0.625000 0.750000
vt 0.375000 1.000000
vt 0.625000 1.000000
vt 0.875000 0.000000
vt 0.875000 0.250000
vt 0.125000 0.000000
vt 0.125000 0.250000
vt 0.500000 0.125000
vt 0.500000 0.000000
vt 0.500000 1.000000
vt 0.625000 0.125000
vt 0.500000 0.250000
vt 0.375000 0.125000
vt 0.500000 0.375000
vt 0.625000 0.375000
vt 0.750000 0.250000
vt 0.500000 0.500000
vt 0.250000 0.250000
vt 0.375000 0.375000
vt 0.500000 0.625000
vt 0.625000 0.625000
vt 0.875000 0.125000
vt 0.500000 0.750000
vt 0.125000 0.125000
vt 0.375000 0.625000
vt 0.500000 0.875000
vt 0.625000 0.875000
vt 0.750000 0.000000
vt 0.500000 1.000000
vt 0.250000 0.000000
vt 0.375000 0.875000
vt 0.750000 0.125000
vt 0.750000 0.000000
vt 0.875000 0.125000
vt 0.750000 0.250000
vt 0.250000 0.125000
vt 0.250000 0.000000
vt 0.250000 0.250000
vt 0.125000 0.125000
vt 0.437500 0.062500
vt 0.375000 0.062500
vt 0.437500 0.000000
vt 0.437500 1.000000
vt 0.500000 0.062500
vt 0.437500 0.125000
vt 0.437500 0.312500
vt 0.312500 0.250000
vt 0.375000 0.312500
vt 0.437500 0.250000
vt 0.500000 0.312500
vt 0.437500 0.375000
vt 0.437500 0.562500
vt 0.125000 0.187500
vt 0.375000 0.562500
vt 0.437500 0.500000
vt 0.500000 0.562500
vt 0.437500 0.625000
vt 0.437500 0.812500
vt 0.187500 0.000000
vt 0.375000 0.812500
vt 0.437500 0.750000
vt 0.500000 0.812500
vt 0.437500 0.875000
vt 0.687500 0.062500
vt 0.625000 0.062500
vt 0.625000 0.937500
vt 0.687500 0.000000
vt 0.750000 0.062500
vt 0.687500 0.125000
vt 0.187500 0.062500
vt 0.125000 0.062500
vt 0.375000 0.687500
vt 0.187500 0.000000
vt 0.250000 0.062500
vt 0.187500 0.125000
vt 0.562500 0.062500
vt 0.562500 0.000000
vt 0.562500 1.000000
vt 0.562500 0.125000
vt 0.562500 0.187500
vt 0.625000 0.187500
vt 0.562500 0.250000
vt 0.500000 0.187500
vt 0.437500 0.187500
vt 0.375000 0.187500
vt 0.562500 0.312500
vt 0.625000 0.312500
vt 0.687500 0.250000
vt 0.562500 0.375000
vt 0.562500 0.437500
vt 0.625000 0.437500
vt 0.812500 0.250000
vt 0.562500 0.500000
vt 0.500000 0.437500
vt 0.437500 0.437500
vt 0.187500 0.250000
vt 0.375000 0.437500
vt 0.562500 0.562500
vt 0.625000 0.562500
vt 0.875000 0.187500
vt 0.562500 0.625000
vt 0.562500 0.687500
vt 0.625000 0.687500
vt 0.875000 0.062500
vt 0.562500 0.750000
vt 0.500000 0.687500
vt 0.437500 0.687500
vt 0.375000 0.687500
vt 0.562500 0.812500
vt 0.625000 0.812500
vt 0.812500 0.000000
vt 0.562500 0.875000
vt 0.562500 0.937500
vt 0.625000 0.937500
vt 0.562500 1.000000
vt 0.500000 0.937500
vt 0.437500 0.937500
vt 0.437500 1.000000
vt 0.312500 0.000000
vt 0.375000 0.937500
vt 0.812500 0.062500
vt 0.812500 0.000000
vt 0.875000 0.062500
vt 0.812500 0.125000
vt 0.812500 0.187500
vt 0.875000 0.187500
vt 0.812500 0.250000
vt 0.750000 0.187500
vt 0.687500 0.187500
vt 0.687500 0.250000
vt 0.312500 0.062500
vt 0.312500 0.000000
vt 0.312500 0.125000
vt 0.312500 0.187500
vt 0.312500 0.250000
vt 0.250000 0.187500
vt 0.187500 0.187500
vt 0.187500 0.250000
vt 0.125000 0.187500
vn -0.922549 -0.187409 0.337314
vn -0.922549 -0.187409 0.337314
vn -0.922549 -0.187409 0.337314
vn -0.922549 -0.187409 0.337314
vn 0.617348 0.612757 0.493367
vn 0.617348 0.612757 0.493367
vn 0.617348 0.612757 0.493367
vn 0.617348 0.612757 0.493367
vn -0.235044 0.417644 -0.877683
vn -0.235044 0.417644 -0.877683
vn -0.235044 0.417644 -0.877683
vn -0.235044 0.417644 -0.877683
vn -0.655338 -0.683597 -0.321291
vn -0.655338 -0.683597 -0.321291
vn -0.655338 -0.683597 -0.321291
vn -0.655338 -0.683597 -0.321291
vn 0.910566 -0.021982 0.412779
vn 0.910566 -0.021982 0.412779
vn 0.910566 -0.021982 0.412779
vn 0.910566 -0.021982 0.412779
vn -0.679652 -0.460170 -0.571241
vn -0.679652 -0.460170 -0.571241
vn -0.679652 -0.460170 -0.571241
vn -0.679652 -0.460170 -0.571241
vn 0.100865 -0.324244 0.940581
vn 0.100865 -0.324244 0.940581
vn 0.100865 -0.324244 0.940581
vn 0.100865 -0.324244 0.940581
vn 0.657839 -0.684850 0.313413
vn 0.657839 -0.684850 0.313413
vn 0.657839 -0.684850 0.313413
vn 0.657839 -0.684850 0.313413
vn 0.044128 0.605259 0.794804
vn 0.044128 0.605260 0.794804
vn 0.044128 0.605259 0.794804
vn 0.044128 0.605259 0.794804
vn -0.183652 0.976733 -0.110743
vn -0.183652 0.976733 -0.110743
vn -0.183652 0.976733 -0.110743
vn -0.183652 0.976733 -0.110743
vn -0.333795 0.843991 0.419834
vn -0.333795 0.843991 0.419834
vn -0.333795 0.843991 0.419834
vn -0.333795 0.843991 0.419834
vn 0.337796 0.763065 0.551023
vn 0.337796 0.763065 0.551023
vn 0.337796 0.763065 0.551023
vn 0.337796 0.763065 0.551023
vn 0.018253 0.253063 -0.967278
vn 0.018253 0.253063 -0.967278
vn 0.018253 0.253063 -0.967278
vn 0.018253 0.253063 -0.967278
vn 0.185650 -0.321734 -0.928451
vn 0.185650 -0.321734 -0.928451
vn 0.185650 -0.321734 -0.928451
vn 0.185650 -0.321734 -0.928451
vn -0.370150 -0.474998 -0.798352
vn -0.370150 -0.474998 -0.798352
vn -0.370150 -0.474998 -0.798352
vn -0.370150 -0.474998 -0.798352
vn -0.121285 -0.851332 -0.510415
vn -0.121285 -0.851332 -0.510415
vn -0.121285 -0.851332 -0.510415
vn -0.121285 -0.851332 -0.510415
vn 0.373945 -0.897025 -0.235606
vn 0.373945 -0.897026 -0.235606
vn 0.373945 -0.897025 -0.235606
vn 0.373945 -0.897026 -0.235606
vn -0.815094 -0.420726 -0.398261
vn -0.815094 -0.420726 -0.398261
vn -0.815094 -0.420726 -0.398261
vn -0.815094 -0.420726 -0.398261
vn 0.956567 -0.022184 0.290666
vn 0.956567 -0.022184 0.290666
vn 0.956567 -0.022184 0.290666
vn 0.956567 -0.022184 0.290666
vn 0.919058 -0.186048 -0.347445
vn 0.919058 -0.186048 -0.347445
vn 0.919058 -0.186048 -0.347445
vn 0.919058 -0.186048 -0.347445
vn 0.998981 0.039499 0.021842
vn 0.998981 0.039499 0.021842
vn 0.998981 0.039499 0.021842
vn 0.998981 0.039499 0.021842
vn -0.483802 -0.648693 -0.587480
vn -0.483802 -0.648693 -0.587480
vn -0.483802 -0.648693 -0.587480
vn -0.483802 -0.648693 -0.587480
vn -0.924111 -0.345048 -0.164200
vn -0.924111 -0.345048 -0.164200
vn -0.924111 -0.345048 -0.164200
vn -0.924111 -0.345048 -0.164200
vn -0.693077 0.433255 -0.576137
vn -0.693077 0.433255 -0.576137
vn -0.693077 0.433255 -0.576137
vn -0.693077 0.433255 -0.576137
vn -0.789458 -0.600915 0.125132
vn -0.789458 -0.600915 0.125132
vn -0.789458 -0.600915 0.125132
vn -0.789458 -0.600915 0.125132
vn -0.323720 -0.244423 0.914037
vn -0.323720 -0.244423 0.914037
vn -0.323720 -0.244423 0.914037
vn -0.323720 -0.244423 0.914037
vn -0.414295 -0.528428 0.741029
vn -0.414295 -0.528428 0.741029
vn -0.414295 -0.528428 0.741029
vn -0.414295 -0.528428 0.741029
vn 0.873264 0.463414 0.150524
vn 0.873264 0.463414 0.150524
vn 0.873264 0.463414 0.150524
vn 0.873264 0.463414 0.150524
vn 0.233221 0.947415 0.219117
vn 0.233221 0.947415 0.219117
vn 0.233221 0.947415 0.219117
vn 0.233221 0.947415 0.219117
vn 0.327077 0.883945 0.334158
vn 0.327077 0.883945 0.334158
vn 0.327077 0.883945 0.334158
vn 0.327077 0.883945 0.334158
vn -0.178569 0.538585 -0.823431
vn -0.178569 0.538585 -0.823431
vn -0.178569 0.538585 -0.823431
vn -0.178569 0.538585 -0.823431
vn -0.125711 0.453782 -0.882201
vn -0.125711 0.453782 -0.882201
vn -0.125711 0.453782 -0.882201
vn -0.125711 0.453782 -0.882201
vn 0.017286 0.170530 -0.985201
vn 0.017286 0.170530 -0.985201
vn 0.017286 0.170530 -0.985201
vn 0.017286 0.170530 -0.985201
vn -0.687600 -0.582608 -0.433330
vn -0.687600 -0.582608 -0.433330
vn -0.687600 -0.582608 -0.433330
vn -0.687600 -0.582608 -0.433330
vn -0.584551 -0.671298 -0.455697
vn -0.584551 -0.671298 -0.455697
vn -0.584551 -0.671298 -0.455697
vn -0.584551 -0.671298 -0.455697
vn -0.748926 -0.481884 -0.454861
vn -0.748925 -0.481884 -0.454861
vn -0.748925 -0.481884 -0.454861
vn -0.748925 -0.481884 -0.454861
vn 0.923263 -0.077385 0.376295
vn 0.923263 -0.077385 0.376295
vn 0.923263 -0.077385 0.376295
vn 0.923263 -0.077385 0.376295
vn 0.944981 -0.089181 0.314735
vn 0.944981 -0.089181 0.314735
vn 0.944981 -0.089181 0.314735
vn 0.944981 -0.089181 0.314735
vn 0.925916 -0.136282 0.352288
vn 0.925916 -0.136282 0.352288
vn 0.925916 -0.136282 0.352288
vn 0.925916 -0.136282 0.352288
vn -0.787920 -0.400441 -0.467791
vn -0.787920 -0.400441 -0.467791
vn -0.787920 -0.400441 -0.467791
vn -0.787920 -0.400441 -0.467791
vn -0.635994 -0.566455 -0.524062
vn -0.635994 -0.566455 -0.524062
vn -0.635994 -0.566455 -0.524062
vn -0.635994 -0.566455 -0.524062
vn -0.541293 -0.611856 -0.576745
vn -0.541293 -0.611856 -0.576745
vn -0.541293 -0.611856 -0.576745
vn -0.541293 -0.611856 -0.576745
vn 0.536325 -0.130602 0.833846
vn 0.536325 -0.130602 0.833846
vn 0.536325 -0.130602 0.833846
vn 0.536325 -0.130602 0.833846
vn 0.631044 -0.083657 0.771223
vn 0.631044 -0.083657 0.771223
vn 0.631044 -0.083657 0.771223
vn 0.631044 -0.083657 0.771223
vn 0.158543 -0.293072 0.942854
vn 0.158543 -0.293072 0.942854
vn 0.158543 -0.293072 0.942854
vn 0.158543 -0.293072 0.942854
vn 0.573974 -0.066800 0.816144
vn 0.573974 -0.066800 0.816144
vn 0.573974 -0.066800 0.816144
vn 0.573974 -0.066800 0.816144
vn 0.319106 0.161219 0.933906
vn 0.319106 0.161219 0.933906
vn 0.319106 0.161219 0.933906
vn 0.319106 0.161219 0.933906
vn 0.400667 -0.297161 0.866696
vn 0.400667 -0.297161 0.866696
vn 0.400667 -0.297161 0.866696
vn 0.400667 -0.297161 0.866696
vn -0.140140 0.447245 0.883364
vn -0.140140 0.447245 0.883364
vn -0.140140 0.447245 0.883364
vn -0.140140 0.447245 0.883364
vn -0.862928 -0.101099 0.495111
vn -0.862928 -0.101099 0.495111
vn -0.862928 -0.101099 0.495111
vn -0.862928 -0.101099 0.495111
vn -0.290748 0.049208 0.955534
vn -0.290748 0.049208 0.955533
vn -0.290748 0.049208 0.955534
vn -0.290748 0.049208 0.955533
vn -0.779536 0.623162 -0.063184
vn -0.779536 0.623162 -0.063184
vn -0.779536 0.623162 -0.063184
vn -0.779536 0.623162 -0.063184
vn -0.499003 0.771454 0.394784
vn -0.499003 0.771454 0.394784
vn -0.499003 0.771454 0.394784
vn -0.499003 0.771454 0.394784
vn -0.255423 0.884683 0.389993
vn -0.255423 0.884683 0.389993
vn -0.255423 0.884683 0.389993
vn -0.255423 0.884683 0.389993
vn -0.210984 0.815485 0.538952
vn -0.210984 0.815485 0.538952
vn -0.210984 0.815485 0.538952
vn -0.210984 0.815485 0.538952
vn 0.168641 0.809413 0.562504
vn 0.168641 0.809413 0.562504
vn 0.168641 0.809413 0.562504
vn 0.168641 0.809413 0.562504
vn -0.014147 0.792007 0.610349
vn -0.014147 0.792007 0.610349
vn -0.014147 0.792007 0.610349
vn -0.014147 0.792007 0.610349
vn 0.314252 0.781622 0.538807
vn 0.314252 0.781622 0.538807
vn 0.314252 0.781622 0.538807
vn 0.314252 0.781622 0.538807
vn 0.385806 0.585279 0.713164
vn 0.385806 0.585279 0.713164
vn 0.385806 0.585279 0.713164
vn 0.385806 0.585279 0.713164
vn 0.315080 0.643189 0.697877
vn 0.315080 0.643189 0.697877
vn 0.315080 0.643189 0.697877
vn 0.315080 0.643189 0.697877
vn 0.178287 0.151377 -0.972265
vn 0.178287 0.151377 -0.972265
vn 0.178287 0.151377 -0.972265
vn 0.178287 0.151377 -0.972265
vn 0.262227 -0.266922 -0.927356
vn 0.262227 -0.266923 -0.927356
vn 0.262227 -0.266923 -0.927356
vn 0.262227 -0.266923 -0.927356
vn 0.191734 -0.155363 -0.969072
vn 0.191734 -0.155363 -0.969072
vn 0.191734 -0.155363 -0.969072
vn 0.191734 -0.155363 -0.969072
vn -0.010549 -0.134479 -0.990860
vn -0.010549 -0.134479 -0.990860
vn -0.010549 -0.134479 -0.990860
vn -0.010549 -0.134479 -0.990860
vn -0.054540 -0.378393 -0.924037
vn -0.054540 -0.378393 -0.924037
vn -0.054540 -0.378393 -0.924037
vn -0.054540 -0.378393 -0.924037
vn 0.160377 -0.413053 -0.896474
vn 0.160377 -0.413053 -0.896474
vn 0.160377 -0.413053 -0.896474
vn 0.160377 -0.413053 -0.896474
vn -0.441021 -0.464033 -0.768228
vn -0.441021 -0.464033 -0.768228
vn -0.441021 -0.464033 -0.768228
vn -0.441021 -0.464033 -0.768228
vn -0.359751 -0.259165 -0.896333
vn -0.359751 -0.259165 -0.896333
vn -0.359751 -0.259165 -0.896333
vn -0.359751 -0.259165 -0.896333
vn -0.247367 -0.390791 -0.886618
vn -0.247367 -0.390791 -0.886618
vn -0.247367 -0.390791 -0.886618
vn -0.247367 -0.390791 -0.886618
vn 0.247961 -0.847822 -0.468735
vn 0.247961 -0.847822 -0.468735
vn 0.247961 -0.847822 -0.468735
vn 0.247961 -0.847822 -0.468735
vn 0.232167 -0.836339 -0.496624
vn 0.232167 -0.836339 -0.496624
vn 0.232167 -0.836339 -0.496624
vn 0.232167 -0.836339 -0.496624
vn -0.315492 -0.733364 -0.602197
vn -0.315492 -0.733364 -0.602197
vn -0.315492 -0.733364 -0.602197
vn -0.315492 -0.733364 -0.602197
vn 0.528975 -0.771939 0.352556
vn 0.528975 -0.771939 0.352556
vn 0.528975 -0.771939 0.352556
vn 0.528975 -0.771939 0.352556
vn 0.143027 -0.841308 0.521291
vn 0.143027 -0.841308 0.521291
vn 0.143027 -0.841308 0.521291
vn 0.143027 -0.841308 0.521291
vn -0.280638 -0.855628 -0.434905
vn -0.280638 -0.855628 -0.434905
vn -0.280638 -0.855628 -0.434905
vn -0.280638 -0.855628 -0.434905
vn -0.495312 -0.807378 -0.320635
vn -0.495312 -0.807378 -0.320635
vn -0.495312 -0.807378 -0.320635
vn -0.495312 -0.807378 -0.320635
vn -0.673047 -0.737649 -0.053676
vn -0.673047 -0.737649 -0.053676
vn -0.673047 -0.737649 -0.053676
vn -0.673047 -0.737649 -0.053676
vn -0.817228 -0.303947 -0.489648
vn -0.817228 -0.303947 -0.489648
vn -0.817228 -0.303947 -0.489648
vn -0.817228 -0.303947 -0.489648
vn 0.988503 -0.000888 0.151197
vn 0.988503 -0.000888 0.151197
vn 0.988503 -0.000888 0.151197
vn 0.988503 -0.000888 0.151197
vn 0.923923 -0.304198 -0.232014
vn 0.923923 -0.304198 -0.232014
vn 0.923923 -0.304198 -0.232014
vn 0.923923 -0.304198 -0.232014
vn 0.910108 -0.400934 -0.104663
vn 0.910109 -0.400934 -0.104663
vn 0.910109 -0.400934 -0.104663
vn 0.910108 -0.400934 -0.104663
vn 0.963911 0.222058 0.146854
vn 0.963911 0.222058 0.146853
vn 0.963911 0.222058 0.146853
vn 0.963911 0.222058 0.146854
vn 0.920067 0.181233 0.347319
vn 0.920067 0.181233 0.347319
vn 0.920067 0.181233 0.347319
vn 0.920067 0.181233 0.347319
vn 0.947391 0.089103 0.307426
vn 0.947391 0.089103 0.307426
vn 0.947391 0.089103 0.307426
vn 0.947391 0.089103 0.307426
vn 0.988092 0.107087 -0.110487
vn 0.988092 0.107087 -0.110487
vn 0.988092 0.107087 -0.110487
vn 0.988092 0.107087 -0.110487
vn 0.909513 -0.415570 0.009381
vn 0.909513 -0.415570 0.009381
vn 0.909513 -0.415570 0.009381
vn 0.909513 -0.415570 0.009381
vn 0.932605 0.053173 0.356961
vn 0.932605 0.053173 0.356961
vn 0.932605 0.053173 0.356961
vn 0.932605 0.053173 0.356961
vn -0.759223 -0.479723 -0.439824
vn -0.759223 -0.479723 -0.439824
vn -0.759223 -0.479723 -0.439824
vn -0.759223 -0.479723 -0.439824
vn -0.944423 -0.245527 -0.218591
vn -0.944423 -0.245527 -0.218591
vn -0.944423 -0.245527 -0.218591
vn -0.944423 -0.245527 -0.218591
vn -0.663732 -0.540851 -0.516663
vn -0.663732 -0.540851 -0.516663
vn -0.663732 -0.540851 -0.516663
vn -0.663732 -0.540851 -0.516663
vn -0.900460 0.429082 -0.071136
vn -0.900460 0.429082 -0.071136
vn -0.900460 0.429082 -0.071136
vn -0.900460 0.429082 -0.071136
vn -0.815815 0.334785 -0.471556
vn -0.815815 0.334785 -0.471556
vn -0.815815 0.334785 -0.471556
vn -0.815815 0.334785 -0.471556
vn -0.836750 -0.238240 -0.493043
vn -0.836750 -0.238240 -0.493043
vn -0.836750 -0.238240 -0.493043
vn -0.836750 -0.238240 -0.493043
vn -0.652655 0.498291 -0.570743
vn -0.652655 0.498291 -0.570743
vn -0.652655 0.498291 -0.570743
vn -0.652655 0.498291 -0.570743
vn -0.730182 0.239990 -0.639717
vn -0.730182 0.239990 -0.639717
vn -0.730183 0.239990 -0.639717
vn -0.730182 0.239990 -0.639717
vn -0.790788 -0.018855 -0.611800
vn -0.790788 -0.018855 -0.611800
vn -0.790788 -0.018855 -0.611800
vn -0.790788 -0.018855 -0.611800
s off
g pCube6
usemtl initialShadingGroup
f 31/52/1 13/20/2 28/48/3 27/47/4
f 36/58/5 17/26/6 33/55/7 32/53/8
f 41/64/9 21/32/10 38/61/11 37/59/12
f 46/70/13 24/38/14 43/67/15 42/65/16
f 51/76/17 11/18/18 48/72/19 47/71/20
f 55/82/21 21/46/22 53/78/23 52/77/24
f 30/51/25 10/16/26 57/84/27 56/83/28
f 58/86/29 11/18/30 60/88/31 59/87/32
f 62/90/33 12/19/34 34/56/35 63/91/36
f 35/57/37 12/19/38 61/89/39 65/93/40
f 67/96/41 15/22/42 69/98/43 68/97/44
f 71/101/45 16/24/46 39/62/47 72/102/48
f 40/63/49 16/24/50 70/100/51 74/105/52
f 76/108/53 19/28/54 78/110/55 77/109/56
f 80/113/57 20/30/58 44/68/59 81/114/60
f 45/69/61 20/30/62 79/112/63 82/116/64
f 84/119/65 23/34/66 49/121/67 85/120/68
f 86/123/69 10/36/70 29/125/71 87/124/72
f 50/75/73 23/40/74 83/129/75 89/128/76
f 90/131/77 19/41/78 75/133/79 91/132/80
f 92/135/81 15/42/82 66/137/83 93/136/84
f 54/81/85 24/44/86 88/139/87 94/138/88
f 95/140/89 13/20/90 64/92/91 96/141/92
f 97/143/93 17/45/94 73/145/95 98/144/96
f 28/48/97 1/1/98 29/49/99 27/47/100
f 29/49/101 10/16/102 30/51/103 27/47/104
f 30/51/105 9/15/106 31/52/107 27/47/108
f 33/55/109 3/3/110 34/56/111 32/53/112
f 34/56/113 12/19/114 35/57/115 32/53/116
f 35/57/117 14/21/118 36/58/119 32/53/120
f 38/61/121 5/5/122 39/62/123 37/59/124
f 39/62/125 16/24/126 40/63/127 37/59/128
f 40/63/129 18/27/130 41/64/131 37/59/132
f 43/67/133 7/7/134 44/68/135 42/65/136
f 44/68/137 20/30/138 45/69/139 42/65/140
f 45/69/141 22/33/142 46/70/143 42/65/144
f 48/72/145 2/2/146 49/74/147 47/71/148
f 49/74/149 23/40/150 50/75/151 47/71/152
f 50/75/153 25/39/154 51/76/155 47/71/156
f 53/78/157 7/13/158 43/80/159 52/77/160
f 43/80/161 24/44/162 54/81/163 52/77/164
f 54/81/165 26/43/166 55/82/167 52/77/168
f 57/84/169 2/2/170 48/72/171 56/83/172
f 48/72/173 11/18/174 58/86/175 56/83/176
f 58/86/177 9/15/178 30/51/179 56/83/180
f 60/88/181 4/4/182 61/89/183 59/87/184
f 61/89/185 12/19/186 62/90/187 59/87/188
f 62/90/189 9/15/190 58/86/191 59/87/192
f 34/56/193 3/3/194 64/92/195 63/91/196
f 64/92/197 13/20/198 31/52/199 63/91/200
f 31/52/201 9/15/202 62/90/203 63/91/204
f 61/89/205 4/4/206 66/94/207 65/93/208
f 66/94/209 15/22/210 67/96/211 65/93/212
f 67/96/213 14/21/214 35/57/215 65/93/216
f 69/98/217 6/6/218 70/100/219 68/97/220
f 70/100/221 16/24/222 71/101/223 68/97/224
f 71/101/225 14/21/226 67/96/227 68/97/228
f 39/62/229 5/5/230 73/104/231 72/102/232
f 73/104/233 17/26/234 36/58/235 72/102/236
f 36/58/237 14/21/238 71/101/239 72/102/240
f 70/100/241 6/6/242 75/106/243 74/105/244
f 75/106/245 19/28/246 76/108/247 74/105/248
f 76/108/249 18/27/250 40/63/251 74/105/252
f 78/110/253 8/8/254 79/112/255 77/109/256
f 79/112/257 20/30/258 80/113/259 77/109/260
f 80/113/261 18/27/262 76/108/263 77/109/264
f 44/68/265 7/7/266 53/115/267 81/114/268
f 53/115/269 21/32/270 41/64/271 81/114/272
f 41/64/273 18/27/274 80/113/275 81/114/276
f 79/112/277 8/8/278 83/117/279 82/116/280
f 83/117/281 23/34/282 84/119/283 82/116/284
f 84/119/285 22/33/286 45/69/287 82/116/288
f 49/121/289 2/10/290 57/122/291 85/120/292
f 57/122/293 10/36/294 86/123/295 85/120/296
f 86/123/297 22/33/298 84/119/299 85/120/300
f 29/125/301 1/9/302 88/127/303 87/124/304
f 88/127/305 24/38/306 46/70/307 87/124/308
f 46/70/309 22/33/310 86/123/311 87/124/312
f 83/129/313 8/11/314 78/130/315 89/128/316
f 78/130/317 19/41/318 90/131/319 89/128/320
f 90/131/321 25/39/322 50/75/323 89/128/324
f 75/133/325 6/12/326 69/134/327 91/132/328
f 69/134/329 15/42/330 92/135/331 91/132/332
f 92/135/333 25/39/334 90/131/335 91/132/336
f 66/137/337 4/4/338 60/88/339 93/136/340
f 60/88/341 11/18/342 51/76/343 93/136/344
f 51/76/345 25/39/346 92/135/347 93/136/348
f 88/139/349 1/1/350 28/48/351 94/138/352
f 28/48/353 13/20/354 95/140/355 94/138/356
f 95/140/357 26/43/358 54/81/359 94/138/360
f 64/92/361 3/3/362 33/142/363 96/141/364
f 33/142/365 17/45/366 97/143/367 96/141/368
f 97/143/369 26/43/370 95/140/371 96/141/372
f 73/145/373 5/14/374 38/146/375 98/144/376
f 38/146/377 21/46/378 55/82/379 98/144/380
f 55/82/381 26/43/382 97/143/383 98/144/384
